<svg width="155" height="24" viewBox="0 0 155 24" fill="none" xmlns="http://www.w3.org/2000/svg">
<g clip-path="url(#clip0)">
<path fill-rule="evenodd" clip-rule="evenodd" d="M12.8967 3.55738C12.7282 3.21607 12.3806 3 12 3C11.6194 3 11.2718 3.21607 11.1033 3.55738L8.24574 9.34647L1.85537 10.2805C1.47881 10.3356 1.16613 10.5996 1.04875 10.9616C0.931375 11.3236 1.02965 11.7208 1.30227 11.9864L5.92548 16.4894L4.83439 22.851C4.77004 23.2261 4.92429 23.6053 5.23226 23.8291C5.54024 24.0528 5.94853 24.0823 6.28545 23.9051L12 20.8998L17.7145 23.9051C18.0515 24.0823 18.4598 24.0528 18.7677 23.8291C19.0757 23.6053 19.23 23.2261 19.1656 22.851L18.0745 16.4894L22.6977 11.9864C22.9703 11.7208 23.0686 11.3236 22.9512 10.9616C22.8339 10.5996 22.5212 10.3356 22.1446 10.2805L15.7543 9.34647L12.8967 3.55738Z" fill="#FFD166"/>
</g>
<path d="M34.61 13.952V8.96599H37.454C38.192 8.96599 38.786 9.19999 39.236 9.66799C39.668 10.136 39.902 10.712 39.902 11.432C39.902 12.152 39.668 12.746 39.2 13.232C38.732 13.718 38.156 13.952 37.454 13.952H34.61ZM41.162 11.45C41.162 10.406 40.766 9.50599 40.01 8.80399C39.272 8.11999 38.354 7.75999 37.274 7.75999H33.35V20H34.61V15.158H36.068L39.668 20H41.36L37.58 15.158C38.534 15.104 39.344 14.762 40.01 14.132C40.766 13.43 41.162 12.53 41.162 11.45Z" fill="#118AB2"/>
<path d="M50.881 15.86C50.881 14.78 50.449 13.844 49.621 13.034C48.811 12.26 47.839 11.864 46.741 11.864C45.589 11.864 44.617 12.278 43.807 13.088C42.997 13.898 42.601 14.87 42.601 16.004C42.601 17.156 42.997 18.128 43.807 18.92C44.185 19.298 44.617 19.586 45.121 19.802C45.625 20.018 46.219 20.126 46.921 20.126C47.623 20.126 48.307 19.91 48.991 19.478C49.675 19.046 50.179 18.434 50.521 17.678H49.081C48.793 18.056 48.451 18.344 48.037 18.56C47.623 18.776 47.191 18.866 46.741 18.866C46.057 18.866 45.445 18.65 44.905 18.2C44.365 17.768 44.023 17.21 43.915 16.526H50.881V15.86ZM49.549 15.446H43.933C44.005 15.122 44.131 14.816 44.311 14.528C44.887 13.592 45.697 13.124 46.741 13.124C47.407 13.124 48.001 13.34 48.523 13.772C49.063 14.222 49.387 14.78 49.549 15.446Z" fill="#118AB2"/>
<path d="M59.2496 16.04C59.2496 16.814 58.9796 17.498 58.4396 18.056C57.8996 18.632 57.2336 18.92 56.4596 18.92C55.6676 18.92 55.0016 18.632 54.4616 18.056C53.9216 17.498 53.6696 16.814 53.6696 16.04C53.6696 15.284 53.9216 14.6 54.4616 14.024C55.0016 13.448 55.6676 13.16 56.4596 13.16C57.2336 13.16 57.8996 13.448 58.4396 14.024C58.9796 14.6 59.2496 15.284 59.2496 16.04ZM60.5096 20V12.08H59.2496V13.448C59.1776 13.34 59.0876 13.25 59.0156 13.16C58.2596 12.332 57.3416 11.9 56.2616 11.9C55.1636 11.9 54.2456 12.332 53.4896 13.16C52.7696 13.988 52.4096 14.942 52.4096 16.04C52.4096 17.156 52.7696 18.11 53.4896 18.92C54.2456 19.766 55.1636 20.18 56.2616 20.18C57.3416 20.18 58.2596 19.766 59.0156 18.92C59.0876 18.848 59.1776 18.758 59.2496 18.65V20H60.5096Z" fill="#118AB2"/>
<path d="M70.6132 14.924C70.3612 14.042 69.8752 13.322 69.1732 12.764C68.4352 12.206 67.6252 11.918 66.7252 11.918C65.5912 11.918 64.6192 12.332 63.8452 13.142C63.0532 13.952 62.6752 14.924 62.6752 16.04C62.6752 17.174 63.0532 18.128 63.8452 18.956C64.2052 19.334 64.6192 19.64 65.1232 19.856C65.6092 20.072 66.1132 20.18 66.6172 20.18C67.1212 20.18 67.5712 20.126 67.9672 19.982C69.2272 19.532 70.0912 18.686 70.5412 17.408H69.1192C68.8672 17.858 68.5432 18.218 68.1112 18.47C67.6792 18.74 67.2292 18.866 66.7252 18.866C65.9512 18.866 65.3032 18.596 64.7632 18.038C64.2232 17.48 63.9712 16.814 63.9712 16.04C63.9712 15.302 64.2232 14.636 64.7632 14.078C65.0152 13.826 65.3032 13.61 65.6452 13.466C65.9692 13.322 66.3832 13.232 66.8512 13.232C67.3192 13.232 67.7692 13.394 68.2372 13.7C68.6872 14.024 69.0292 14.42 69.2452 14.924H70.6132Z" fill="#118AB2"/>
<path d="M71.612 13.25H73.592V20H74.852V13.25H76.814V12.08H74.852V9.00199H73.592V12.08H71.612V13.25Z" fill="#118AB2"/>
<path d="M86.7613 14.24C88.3453 14.618 89.4254 15.032 90.0014 15.5C90.3974 15.824 90.5953 16.238 90.5953 16.742C90.5953 17.246 90.4874 17.66 90.2714 17.948C89.7314 18.704 88.7593 19.082 87.3913 19.082C85.4833 19.082 84.4033 18.434 84.1693 17.138H82.6933C83.1253 19.208 84.6913 20.234 87.3913 20.234C88.5973 20.234 89.6054 19.982 90.4154 19.442C91.3874 18.812 91.8913 17.876 91.8913 16.652C91.8913 15.644 91.4954 14.87 90.7034 14.33C90.1454 13.934 89.2453 13.574 88.0033 13.25C86.7433 12.926 85.9334 12.656 85.5554 12.458C84.7274 12.044 84.3133 11.468 84.3313 10.712C84.3313 10.316 84.4034 9.97399 84.5834 9.72199C85.0514 9.01999 85.8793 8.65999 87.0673 8.65999C88.7413 8.65999 89.6953 9.19999 89.9473 10.244H91.3153C90.8653 8.47999 89.4433 7.57999 87.0673 7.57999C85.9873 7.57999 85.0333 7.86799 84.2413 8.44399C83.4313 9.01999 83.0173 9.86599 83.0173 11.018C83.0173 12.584 84.2773 13.664 86.7613 14.24Z" fill="#118AB2"/>
<path d="M92.7233 13.25H94.7033V20H95.9633V13.25H97.9253V12.08H95.9633V9.00199H94.7033V12.08H92.7233V13.25Z" fill="#118AB2"/>
<path d="M105.937 16.04C105.937 16.814 105.667 17.498 105.127 18.056C104.587 18.632 103.921 18.92 103.147 18.92C102.355 18.92 101.689 18.632 101.149 18.056C100.609 17.498 100.357 16.814 100.357 16.04C100.357 15.284 100.609 14.6 101.149 14.024C101.689 13.448 102.355 13.16 103.147 13.16C103.921 13.16 104.587 13.448 105.127 14.024C105.667 14.6 105.937 15.284 105.937 16.04ZM107.197 20V12.08H105.937V13.448C105.865 13.34 105.775 13.25 105.703 13.16C104.947 12.332 104.029 11.9 102.949 11.9C101.851 11.9 100.933 12.332 100.177 13.16C99.4571 13.988 99.0971 14.942 99.0971 16.04C99.0971 17.156 99.4571 18.11 100.177 18.92C100.933 19.766 101.851 20.18 102.949 20.18C104.029 20.18 104.947 19.766 105.703 18.92C105.775 18.848 105.865 18.758 105.937 18.65V20H107.197Z" fill="#118AB2"/>
<path d="M113.971 13.718V12.08C113.719 11.972 113.449 11.918 113.179 11.918C112.279 11.918 111.631 12.422 111.217 13.394L111.163 13.718V12.08H109.903V20H111.163V16.04C111.163 15.392 111.307 14.816 111.613 14.294C111.757 14.024 111.955 13.79 112.189 13.61C112.423 13.43 112.711 13.322 113.035 13.322C113.359 13.322 113.665 13.466 113.971 13.718Z" fill="#118AB2"/>
<path d="M121.604 13.952V8.96599H124.448C125.186 8.96599 125.78 9.19999 126.23 9.66799C126.662 10.136 126.896 10.712 126.896 11.432C126.896 12.152 126.662 12.746 126.194 13.232C125.726 13.718 125.15 13.952 124.448 13.952H121.604ZM128.156 11.45C128.156 10.406 127.76 9.50599 127.004 8.80399C126.266 8.11999 125.348 7.75999 124.268 7.75999H120.344V20H121.604V15.158H123.062L126.662 20H128.354L124.574 15.158C125.528 15.104 126.338 14.762 127.004 14.132C127.76 13.43 128.156 12.53 128.156 11.45Z" fill="#118AB2"/>
<path d="M136.435 16.04C136.435 16.814 136.165 17.498 135.625 18.056C135.085 18.632 134.419 18.92 133.645 18.92C132.853 18.92 132.187 18.632 131.647 18.056C131.107 17.498 130.855 16.814 130.855 16.04C130.855 15.284 131.107 14.6 131.647 14.024C132.187 13.448 132.853 13.16 133.645 13.16C134.419 13.16 135.085 13.448 135.625 14.024C136.165 14.6 136.435 15.284 136.435 16.04ZM137.695 20V12.08H136.435V13.448C136.363 13.34 136.273 13.25 136.201 13.16C135.445 12.332 134.527 11.9 133.447 11.9C132.349 11.9 131.431 12.332 130.675 13.16C129.955 13.988 129.595 14.942 129.595 16.04C129.595 17.156 129.955 18.11 130.675 18.92C131.431 19.766 132.349 20.18 133.447 20.18C134.527 20.18 135.445 19.766 136.201 18.92C136.273 18.848 136.363 18.758 136.435 18.65V20H137.695Z" fill="#118AB2"/>
<path d="M139.411 13.25H141.391V20H142.651V13.25H144.613V12.08H142.651V9.00199H141.391V12.08H139.411V13.25Z" fill="#118AB2"/>
<path d="M154.065 15.86C154.065 14.78 153.633 13.844 152.805 13.034C151.995 12.26 151.023 11.864 149.925 11.864C148.773 11.864 147.801 12.278 146.991 13.088C146.181 13.898 145.785 14.87 145.785 16.004C145.785 17.156 146.181 18.128 146.991 18.92C147.369 19.298 147.801 19.586 148.305 19.802C148.809 20.018 149.403 20.126 150.105 20.126C150.807 20.126 151.491 19.91 152.175 19.478C152.859 19.046 153.363 18.434 153.705 17.678H152.265C151.977 18.056 151.635 18.344 151.221 18.56C150.807 18.776 150.375 18.866 149.925 18.866C149.241 18.866 148.629 18.65 148.089 18.2C147.549 17.768 147.207 17.21 147.099 16.526H154.065V15.86ZM152.733 15.446H147.117C147.189 15.122 147.315 14.816 147.495 14.528C148.071 13.592 148.881 13.124 149.925 13.124C150.591 13.124 151.185 13.34 151.707 13.772C152.247 14.222 152.571 14.78 152.733 15.446Z" fill="#118AB2"/>
<defs>
<clipPath id="clip0">
<rect width="24" height="24" fill="white"/>
</clipPath>
</defs>
</svg>
